# xmcd
#
# Track frame offsets: 
#        150
#        15981
#        27618
#        41178
#        50747
#        63269
#        76411
#        90953
#        108031
#        121528
#        134670
#        144336
#        163141
#
# Disc length: 2373 seconds
#
# Revision: 0
# Processed by: cddbd v1.5.2PL0 Copyright (c) Steve Scherf et al.
# Submitted via: ExactAudioCopy v1.3
#
DISCID=a409430d
DTITLE=Doghouse Sam and His Magnatones - Going Places
DYEAR=2017
DGENRE=Blues, Western Swing
TTITLE0=I Was Wrong
TTITLE1=Slideaside
TTITLE2=Another Fight
TTITLE3=Cut To The Chase
TTITLE4=Nearly All The Time
TTITLE5=What Bout That
TTITLE6=Go Get Some Grub
TTITLE7=A Little While
TTITLE8=You're Everything To Me
TTITLE9=Nobody Else Around
TTITLE10=Your Next Move
TTITLE11=Dog Fever
TTITLE12=Take Care
EXTD=
EXTT0=
EXTT1=
EXTT2=
EXTT3=
EXTT4=
EXTT5=
EXTT6=
EXTT7=
EXTT8=
EXTT9=
EXTT10=
EXTT11=
EXTT12=
PLAYORDER=
